<svg width="26" height="26" viewBox="0 0 26 26" fill="none" xmlns="http://www.w3.org/2000/svg">
<path d="M22 1H4C2.34315 1 1 2.34315 1 4V22C1 23.6569 2.34315 25 4 25H22C23.6569 25 25 23.6569 25 22V4C25 2.34315 23.6569 1 22 1Z" fill="white" stroke="black" stroke-miterlimit="10"/>
<path d="M16.8359 12.1531C16.381 11.5776 15.8027 11.2268 15.0956 11.0952C15.7424 10.8924 16.2576 10.5471 16.6441 10.0565C17.0332 9.56595 17.2251 8.95753 17.2251 8.22851C17.2251 7.60912 17.0689 7.05002 16.751 6.55944C16.433 6.0716 15.9671 5.68791 15.3532 5.41384C14.7366 5.13703 14.0048 5 13.1579 5H8V17.5112H9.21412C9.395 16.6752 9.86091 15.949 10.5077 15.4337V12.0983H12.9825C13.591 12.0983 14.0761 12.2518 14.4351 12.556C14.7941 12.863 14.975 13.2823 14.975 13.8195C14.975 14.3457 14.8051 14.7513 14.4625 15.0391C14.4543 15.0473 14.4433 15.0555 14.4323 15.0583C15.1614 15.4392 15.7479 16.0613 16.0768 16.8205C16.4687 16.5684 16.7866 16.2587 17.025 15.8887C17.3539 15.3789 17.5183 14.7924 17.5183 14.1209C17.5156 13.3837 17.2881 12.7259 16.8359 12.1531ZM14.1829 9.76054C13.8623 10.0291 13.3991 10.1634 12.8044 10.1634H10.5077V7.0281H12.8044C13.3991 7.0281 13.8623 7.16513 14.1829 7.4392C14.5063 7.716 14.668 8.10244 14.668 8.60672C14.6653 9.10826 14.5063 9.48921 14.1829 9.76054Z" fill="#0075FF"/>
<path d="M15.4573 17.111C14.9942 16.0311 13.9363 15.3323 12.7578 15.3323C11.4779 15.3323 10.3515 16.1517 9.95957 17.3713C9.86638 17.6618 9.81979 17.9661 9.81979 18.273C9.81979 19.8927 11.1381 21.2138 12.7605 21.2138C14.383 21.2138 15.7013 19.8955 15.7013 18.273C15.6985 17.8756 15.6163 17.4837 15.4573 17.111ZM11.8561 17.7413C12.0397 17.4207 12.3851 17.2233 12.7605 17.2233C13.1278 17.2233 13.4594 17.4097 13.654 17.7249C13.7581 17.8866 13.8102 18.0784 13.8102 18.2758C13.8102 18.854 13.3388 19.3254 12.7578 19.3254C12.1768 19.3254 11.7054 18.854 11.7054 18.2758C11.7054 18.0839 11.7547 17.9058 11.8561 17.7413Z" fill="black"/>
</svg>
